<svg
  width="112"
  height="73"
  viewBox="0 0 112 73"
  fill="currentColor"
  xmlns="http://www.w3.org/2000/svg"
>
  <path
    d="M24.56 15.8V44H20.88V30.96H6.56V44H2.92V15.8H6.56V28H20.88V15.8H24.56ZM88.2694 16.28V44H84.6294V21.88L75.7894 44H72.5494L63.6694 21.96V44H60.0294V16.28H64.3894L74.2294 39.56L83.9094 16.28H88.2694ZM97.7319 18.76V28.4H108.452V31.2H97.7319V41.04H109.652V44H94.0919V15.8H109.652V18.76H97.7319Z"
    fill="#F4F4F4"
  />
  <path
    d="M56.73 29.4C56.73 32.84 55.8767 35.68 54.17 37.92C52.49 40.16 50.1833 41.7067 47.25 42.56L47.25 38.72C49.1167 38 50.5967 36.84 51.69 35.24C52.81 33.64 53.37 31.68 53.37 29.36C53.37 27.52 52.9167 25.8667 52.01 24.4C51.13 22.96 49.85 21.8133 48.17 20.96C46.5167 20.1333 44.57 19.72 42.33 19.72C40.1167 19.72 38.1833 20.1333 36.53 20.96C34.8767 21.8133 33.5967 22.96 32.69 24.4C31.81 25.8667 31.37 27.52 31.37 29.36C31.37 31.68 31.9167 33.64 33.01 35.24C34.13 36.84 35.6233 38 37.49 38.72L37.49 42.56C34.5567 41.7067 32.2367 40.16 30.53 37.92C28.85 35.68 28.01 32.84 28.01 29.4C28.01 26.76 28.61 24.4267 29.81 22.4C31.0367 20.3733 32.73 18.7867 34.89 17.64C37.0767 16.52 39.5567 15.96 42.33 15.96C45.13 15.96 47.6233 16.52 49.81 17.64C51.9967 18.7867 53.69 20.3733 54.89 22.4C56.1167 24.4267 56.73 26.76 56.73 29.4ZM56.45 51.0678L28.25 51.0678L28.25 47.4278L56.45 47.4278L56.45 51.0678ZM56.45 60.56L28.25 60.56L28.25 56.92L56.45 56.92L56.45 60.56ZM56.45 70.0522L28.25 70.0522L28.25 66.4122L56.45 66.4122L56.45 70.0522Z"
    fill="#E87461"
  />
</svg>
