<svg width="68" height="129" viewBox="0 0 68 129" fill="none" xmlns="http://www.w3.org/2000/svg">
<path d="M20.48 29.48C23.1467 29.48 25.1733 29.8 26.56 30.44C27.9467 31.0267 29.1733 31.6933 30.24 32.44C30.88 32.8133 31.3867 33.1067 31.76 33.32C32.1867 33.48 32.5867 33.56 32.96 33.56C33.4933 33.56 33.8667 33.2667 34.08 32.68C34.3467 32.0933 34.56 31.2133 34.72 30.04H36.56C36.5067 30.9467 36.4267 32.04 36.32 33.32C36.2667 34.5467 36.2133 36.2 36.16 38.28C36.16 40.3067 36.16 43 36.16 46.36H34.32C34.16 43.8 33.6 41.3467 32.64 39C31.68 36.6533 30.2667 34.7333 28.4 33.24C26.5867 31.7467 24.1867 31 21.2 31C18.3733 31 16.0267 31.8533 14.16 33.56C12.3467 35.2667 11.44 37.5067 11.44 40.28C11.44 42.68 12.0533 44.7067 13.28 46.36C14.5067 47.96 16.1333 49.4267 18.16 50.76C20.24 52.04 22.48 53.4267 24.88 54.92C27.6533 56.6267 30.1067 58.3333 32.24 60.04C34.4267 61.6933 36.1333 63.5333 37.36 65.56C38.64 67.5867 39.28 70.04 39.28 72.92C39.28 76.3333 38.5067 79.16 36.96 81.4C35.4133 83.64 33.36 85.32 30.8 86.44C28.24 87.56 25.4133 88.12 22.32 88.12C19.4933 88.12 17.2533 87.8 15.6 87.16C13.9467 86.52 12.5333 85.8533 11.36 85.16C10.1867 84.4133 9.28 84.04 8.64 84.04C8.10667 84.04 7.70667 84.3333 7.44 84.92C7.22667 85.5067 7.04 86.3867 6.88 87.56H5.04C5.14667 86.44 5.2 85.1333 5.2 83.64C5.25333 82.0933 5.28 80.0933 5.28 77.64C5.33333 75.1867 5.36 72.0933 5.36 68.36H7.2C7.41333 71.56 8 74.5467 8.96 77.32C9.97333 80.0933 11.4933 82.3333 13.52 84.04C15.6 85.6933 18.3467 86.52 21.76 86.52C23.52 86.52 25.1733 86.1733 26.72 85.48C28.32 84.7333 29.6267 83.5867 30.64 82.04C31.6533 80.44 32.16 78.3867 32.16 75.88C32.16 73.6933 31.6267 71.8 30.56 70.2C29.5467 68.5467 28.1067 67.0267 26.24 65.64C24.3733 64.2 22.1867 62.7333 19.68 61.24C17.1733 59.6933 14.8267 58.12 12.64 56.52C10.4533 54.92 8.69333 53.08 7.36 51C6.08 48.8667 5.44 46.3067 5.44 43.32C5.44 40.1733 6.13333 37.5867 7.52 35.56C8.96 33.48 10.8267 31.96 13.12 31C15.4133 29.9867 17.8667 29.48 20.48 29.48Z" fill="#E7C982"/>
<path d="M41.08 51.24C44.5467 51.24 47.3467 51.7733 49.48 52.84C51.6133 53.8533 53.6133 55.0533 55.48 56.44C56.1733 56.9733 56.7067 57.24 57.08 57.24C58.0933 57.24 58.76 55.6133 59.08 52.36H60.92C60.8133 54.3333 60.7333 56.7333 60.68 59.56C60.6267 62.3867 60.6 66.12 60.6 70.76H58.76C58.3867 68.52 57.9333 66.36 57.4 64.28C56.8667 62.2 55.9867 60.4133 54.76 58.92C53.2133 56.9467 51.1867 55.4267 48.68 54.36C46.1733 53.24 43.5867 52.68 40.92 52.68C38.2533 52.68 35.8267 53.3467 33.64 54.68C31.5067 55.96 29.6667 57.8267 28.12 60.28C26.5733 62.7333 25.3733 65.6933 24.52 69.16C23.72 72.5733 23.32 76.44 23.32 80.76C23.32 90.36 24.8667 97.4 27.96 101.88C31.0533 106.307 35.8533 108.52 42.36 108.52C44.28 108.52 45.9333 108.253 47.32 107.72C48.76 107.133 49.88 106.573 50.68 106.04C51.6933 105.347 52.3333 104.707 52.6 104.12C52.8667 103.48 53 102.653 53 101.64V93.96C53 91.7733 52.7867 90.1467 52.36 89.08C51.9333 88.0133 51.1333 87.2933 49.96 86.92C48.84 86.5467 47.16 86.3333 44.92 86.28V84.68C45.88 84.7333 47 84.7867 48.28 84.84C49.56 84.84 50.8933 84.8667 52.28 84.92C53.72 84.92 55.0267 84.92 56.2 84.92C57.96 84.92 59.5333 84.8933 60.92 84.84C62.36 84.7867 63.56 84.7333 64.52 84.68V86.28C63.3467 86.3333 62.4667 86.52 61.88 86.84C61.2933 87.16 60.8933 87.8 60.68 88.76C60.52 89.72 60.44 91.1867 60.44 93.16V109H58.84C58.7867 108.093 58.5733 107.107 58.2 106.04C57.88 104.973 57.3733 104.44 56.68 104.44C56.36 104.44 56.04 104.52 55.72 104.68C55.4 104.84 54.84 105.213 54.04 105.8C52.28 107.133 50.4133 108.2 48.44 109C46.4667 109.747 44.1733 110.12 41.56 110.12C36.0667 110.12 31.3467 109 27.4 106.76C23.5067 104.467 20.52 101.187 18.44 96.92C16.36 92.6533 15.32 87.56 15.32 81.64C15.32 75.4 16.44 70.0133 18.68 65.48C20.92 60.9467 23.96 57.4533 27.8 55C31.6933 52.4933 36.12 51.24 41.08 51.24Z" fill="#E7C982"/>
</svg>
